<svg width="87" height="82" viewBox="0 0 87 82" fill="none" xmlns="http://www.w3.org/2000/svg">
<path d="M0 81.7283C0.135093 77.7884 1.86429 69.8271 7.70031 69.501C14.9953 69.0935 29.3152 64.6101 33.2329 58.6324V49.6657C31.5668 47.1297 28.3696 41.8403 28.9099 40.9708C28.1444 41.3784 26.6674 40.7806 26.8835 35.1289L24.8571 31.3249C24.5419 28.0643 24.668 22.7386 27.6941 27.5208C26.118 21.4525 24.3438 8.98977 29.8556 7.68553C29.4948 7.03859 29.5388 6.53796 29.8556 5.5118C31.4767 0.756769 53.632 -4.81341 55.5233 7.27796L57.955 4.83252V8.36483C60.3866 8.09312 63.9801 11.082 59.441 26.2981C61.0621 24.9395 63.3587 24.6678 59.5761 34.4496C59.486 37.4385 58.2522 44.6661 54.0373 49.6657V58.6324C55.2531 61.2137 61.8997 66.9469 78.7593 69.2293C81.3261 69.3652 86.5677 72.1095 87 82L0 81.7283Z" fill="#A0A0A0"/>
</svg>
